<svg id="calendar-date" xmlns="http://www.w3.org/2000/svg" width="36" height="36" viewBox="0 0 36 36">
  <path id="Path_13" data-name="Path 13" d="M14.5,26.3v-12H13.077a28.35,28.35,0,0,0-2.952,1.814v1.564c.844-.578,2.18-1.4,2.83-1.748h.027V26.3H14.5Zm2.673-2.936a3.577,3.577,0,0,0,3.832,3.163c2.83,0,4.5-2.4,4.5-6.46,0-4.351-1.757-6-4.394-6a3.954,3.954,0,0,0-4.043,4.07,3.73,3.73,0,0,0,3.771,3.982,3.135,3.135,0,0,0,3.112-1.778h.061C24,23.3,22.976,25.2,21.077,25.2a2.227,2.227,0,0,1-2.363-1.845H17.175Zm6.644-5.213A2.637,2.637,0,0,1,21.154,20.8a2.477,2.477,0,0,1-2.574-2.7,2.545,2.545,0,0,1,2.628-2.723,2.507,2.507,0,0,1,2.61,2.768Z" fill="red"/>
  <path id="Path_14" data-name="Path 14" d="M2.25,9V31.5A2.25,2.25,0,0,0,4.5,33.75h27a2.25,2.25,0,0,0,2.25-2.25V9ZM4.5,2.25A4.5,4.5,0,0,0,0,6.75V31.5A4.5,4.5,0,0,0,4.5,36h27A4.5,4.5,0,0,0,36,31.5V6.75a4.5,4.5,0,0,0-4.5-4.5Z" fill="red" fill-rule="evenodd"/>
  <path id="Path_15" data-name="Path 15" d="M7.875,0A1.125,1.125,0,0,1,9,1.125V2.25a1.125,1.125,0,0,1-2.25,0V1.125A1.125,1.125,0,0,1,7.875,0Zm20.25,0A1.125,1.125,0,0,1,29.25,1.125V2.25a1.125,1.125,0,0,1-2.25,0V1.125A1.125,1.125,0,0,1,28.125,0Z" fill="red" fill-rule="evenodd"/>
</svg>
